<svg width="32" height="32" viewBox="0 0 32 32" fill="none" xmlns="http://www.w3.org/2000/svg">
  <!-- Background circle -->
  <circle cx="16" cy="16" r="16" fill="#3b82f6"/>
  
  <!-- RSS feed icon -->
  <g fill="white">
    <!-- Radio waves -->
    <path d="M6 24C6 17.373 11.373 12 18 12V9C9.716 9 3 15.716 3 24H6Z" opacity="0.8"/>
    <path d="M6 24C6 20.686 8.686 18 12 18V15C7.029 15 3 19.029 3 24H6Z" opacity="0.6"/>
    
    <!-- Center dot -->
    <circle cx="8" cy="24" r="2"/>
    
    <!-- Data visualization elements -->
    <rect x="14" y="8" width="2" height="6" rx="1" opacity="0.7"/>
    <rect x="17" y="6" width="2" height="8" rx="1" opacity="0.8"/>
    <rect x="20" y="4" width="2" height="10" rx="1" opacity="0.9"/>
    <rect x="23" y="7" width="2" height="7" rx="1" opacity="0.6"/>
    <rect x="26" y="5" width="2" height="9" rx="1" opacity="0.8"/>
  </g>
</svg>