<svg width="32" height="32" viewBox="0 0 32 32" fill="none" xmlns="http://www.w3.org/2000/svg">
  <!-- Background with subtle gradient -->
  <rect width="32" height="32" rx="6" fill="#f8fafc"/>
  <rect width="32" height="32" rx="6" fill="url(#gradient)" opacity="0.3"/>
  
  <!-- RSS feed icon -->
  <g fill="#6b7280">
    <!-- Outer wave -->
    <path d="M7 22C7 16.477 11.477 12 17 12V10C10.373 10 5 15.373 5 22H7Z" opacity="0.4"/>
    <!-- Inner wave -->
    <path d="M7 22C7 19.239 9.239 17 12 17V15C8.134 15 5 18.134 5 22H7Z" opacity="0.6"/>
    <!-- Center dot -->
    <circle cx="8" cy="22" r="1.5"/>
    
    <!-- Subtle data elements -->
    <rect x="18" y="12" width="1.5" height="4" rx="0.75" opacity="0.3"/>
    <rect x="20.5" y="10" width="1.5" height="6" rx="0.75" opacity="0.4"/>
    <rect x="23" y="8" width="1.5" height="8" rx="0.75" opacity="0.5"/>
    <rect x="25.5" y="11" width="1.5" height="5" rx="0.75" opacity="0.3"/>
  </g>
  
  <!-- Gradient definition -->
  <defs>
    <linearGradient id="gradient" x1="0%" y1="0%" x2="100%" y2="100%">
      <stop offset="0%" style="stop-color:#3b82f6;stop-opacity:1" />
      <stop offset="100%" style="stop-color:#1d4ed8;stop-opacity:1" />
    </linearGradient>
  </defs>
</svg>